<?xml version="1.0" ?><svg enable-background="new 0 0 386.2 521.8" version="1.1" viewBox="0 0 386.2 521.8" xml:space="preserve" xmlns="http://www.w3.org/2000/svg" xmlns:xlink="http://www.w3.org/1999/xlink"><g id="Layer_20"><path d="M310.8,211.3c-3.1-5.4-8.6-10.2-14.7-12.6c-0.9-0.6-1.8-1.1-2.7-1.5c-1.9-0.9-4-1.5-6.2-1.8   c1.1-5.8,3-12.8,2.2-18.5c0.7-10.3-1.4-21.9-6.6-30.8c-1.3-10.6-12.9-20.5-19.6-27.6c-9.4-9.9-20-16-32.7-20.5   c-7-2.5-26.7-13.7-34.2-7.2c-3.7-2.6-9.1-2.2-13.5-1.5c-8.6,1.4-17.5,1.9-26,4.3c-9.3,2.6-19,8.2-26.7,13.9   c-4.5,3.3-9.2,6.5-12.7,10.7c-6.9,2.7-11.5,9.6-15.4,15.7c-5.4,8.4-10.4,17.2-12.9,26.9c-1.9,7.7-1.7,16.3-0.1,24.1   c0.7,3.7,3.3,10.8,7.3,14c0,0-0.1,0.1-0.1,0.1c0.1,0.2,0.4,0.5,0.6,0.7c0.1,0.1,0.1,0.2,0.1,0.2c0.1,0.1,0.2,0.2,0.3,0.2   c0.5,0.4-0.2,1.1-0.7,0.7c-0.2-0.1-0.3-0.2-0.5-0.3c-0.1,0-0.1,0-0.2,0c-0.6-0.2-1.2-0.2-1.8-0.3c-0.3,0-0.7-0.1-1-0.1   c-4.8-0.6-10.4,1-12.7,5.4c-0.3,0.1-0.6,0.2-0.8,0.4c-6.6,5-10,13.3-11.6,21.3c-1.6,8.4,1.9,16,7.7,22c6.2,6.4,16.4,7.9,24.9,6.8   c5-0.7,11.3-2.4,15.6-5.9c4.2,6.8,14.9,6.9,22.5,6.1c1.9-0.2,3.9-0.3,5.9-0.5c5.8-3.7,13.8-4.1,20.3-3.1c4.6,0.7,11.7,2,14.5,6.5   c5,0.1,10.8,0,16-1.6c3,0.1,6.2-0.6,9.3-1.8c3.6-4.8,9.4-9,15.6-10.2c0.8-0.9,1.5-1.8,2.2-2.8c-0.2,0.8,0,1.7,0.5,2.4   c1.2-0.1,2.5,0,3.7,0.2c5,0.9,8.5,4.1,12.5,7c0.5,0.3,0.9,0.7,1.3,1c6.3,0.5,12.8-1,18.2-4.2c3-1.7,6-4.3,8.5-7.3   c3.7,2.5,8.8,4.1,12.2,4.8c10.2,2.1,20.1,0.7,27.6-7.1C313.6,232.3,316,220.2,310.8,211.3z M223,241.2c0.3-0.5,0.6-1,0.8-1.6   c0.3,0.3,0.6,0.5,0.9,0.8C224,240.5,223.4,240.8,223,241.2z" fill="#FF8AD5"/></g><g id="shad"><path d="M284.3,178.7c-0.5-1.3-2.2-1-2.3,0.3c-0.5,4.5-2.2,9.5-3.8,13.7c-0.9,2.3-1.9,4.8-3.2,6.9   c-1.3,2.2-2.6,2.6-3.1,5.5c-0.1,0.6,0.2,1.1,0.8,1.1c3,0.1,4.5,0.1,7-1.8c2.2-1.8,3.8-4.8,4.6-7.5   C285.9,190.8,286.3,184.6,284.3,178.7z" fill="#231F20" opacity="0.6"/><path d="M312.2,227.7c-0.1-0.6-0.8-0.7-1.2-0.3c-4,3.5-7.9,5.8-13.2,7.1c-2.7,0.7-12.1,0.9-13.9-1.8   c-0.5-0.8-1.3-1.4-2.2-1.7c0.2-2.8,0-5.6-0.7-8.4c-0.4-1.6-2.3-2.8-3.8-2.2c-0.1,0-0.1,0.1-0.2,0.1c0-0.2-0.1-0.3-0.1-0.5   c-0.2-1-1.2-0.9-1.6-1.6c-1-1.5-2.8-2-3.6-3.4c-0.2-0.4-0.9-0.2-0.9,0.2c0.1,1.1,0,2.6,1.2,3.2c0.4,0.2,0.8,1.5,1.3,2.4   c-0.2,1-0.3,2-0.2,3c0.1,1,0.6,1.8,1.4,2.3c-0.2,1.5-0.2,3-0.1,4.5c0-0.1,0-0.2-0.1-0.3c-0.4-1.3-1.9-2.1-3.2-1.3   c-2.1,1.3-3.4,3.4-5.5,4.8c-2.7,1.8-5.8,2.6-8.9,3.5c-5.2,1.4-9-0.6-14.1-0.5c-0.8-0.1-1.2,0-1.1,0.1c-0.3-0.2-0.7-0.3-1-0.5   c-0.7-0.3-1.3-0.5-2-0.7c-1.2-1.2-2.6-2-4.3-2.3c-0.1-0.2-0.2-0.3-0.3-0.5c0.6,0.7-0.5-2.8-0.7-3.4c-1-3.4-3.8-6.1-6.4-8.3   c-0.7-0.6-1.9,0.2-1.4,1c1.8,3.1,0.2,6.4-0.2,9.6c0,0.2,0,0.5,0,0.7c-0.1,0-0.1,0.1-0.2,0.1c-2,2.1-3.6,4.5-5.6,6.6   c-2.9,3-6.9,4.8-10.7,6.4c-6.4,2.7-12.9,3.3-19.5,4.7c-2.6-1.3-6.1-1.2-8.9-1.3c-5-0.2-7.9-1.5-10.9-5.5c-1.3-1.8-3-2.9-5-3   c-0.4-0.8-0.8-1.7-0.9-2.6c-0.3-2.8-2.1-4.9-4.7-5.2c-0.7-4,0.9-9.1,2.4-12.3c0-0.1,0-0.1-0.1-0.1c-2.3,1.3-4.1,2.8-5.6,5   c-2.2,3.1-2.2,7-3.8,10.2c-1,1.9-0.7,4.4,0.8,5.8c-1.6,0.1-3.2,0.3-4.8,0.8c-2.8,0.8-6-0.3-8.7-1.1c-2.2-0.7-4.6-2.1-7-2.1   c-0.4,0-0.8,0.1-1.2,0.2c-1.8-2.9-4.6-5.4-6.8-7.7c-1.8-1.8-1.5-4.2-4.2-5.2c-0.5-0.2-1-0.3-1.4-0.4c0.2-2.5,2.1-5.7,3.4-8.4   c2.4-2.2,5.4-3.7,7.8-6c0.1-0.1,0.1-0.2,0.2-0.2c3.1,0.6,6.2,1,9.3,1.8c7.1,1.9,13.6,2.5,20.9,1.7c1.6-0.2,3.3-0.4,4.9-0.5   c0.8-0.1,1.6,1.2,2.8,1.8c3.4,1.6,6.6,1.9,10.1,0.5c1.8-0.7,0.6-1,2.5-0.4c2,0.7,3.7,1.3,5.9,1.5c3.4,0.4,6.8,0.2,10.2-0.1   c4.2-0.3,7.9-1.2,11.8-2.6c3.9-1.3,7-0.6,11.1-0.6c3.6,0,7.1-0.7,10.7-0.9c4.3-0.2,8.6-0.2,12.9-0.6c7-0.5,16.5-1.7,21.2-7.5   c1.6-2,0.9-5.9-2.3-5.7c-3.7,0.3-7.1,1.6-10.7,2.1c-4.3,0.5-8.7,0.2-13-0.1c-3.7-0.3-7.5-0.7-11.2-1c-4.1-0.3-7.9-1.3-12-1.8   c-7.9-0.9-15.2,3.3-22.9,4.3c-4.2,0.5-7.1-0.6-11.1-1c-1.7-0.2-3.2,0.1-4.7,0.6c-1.9-2.3-5.8-3.5-8.3-4.7c-1.6-0.8-3.8-0.4-4.6,1.3   c-0.5,0.3-0.9,0.9-1.1,1.6c-0.1,0.3-0.1,0.6-0.1,0.9c-3.1,0.2-6.3,0.7-9.4,0.8c-1.2,0-2.4,0-3.6-0.2c-1.3-0.5-2.6-1-3.8-1.3   c-3.3-0.9-6.4-2.5-9.3-4.3c0,0,0,0,0,0c-0.2-0.1-0.4-0.2-0.6-0.3c-1.9-0.8-3.1,0.7-3.3,2.3c-0.4-0.1-0.9-0.2-1.3-0.2   c-2.6-0.4-4.3-2.5-6.8-3.3c-2.4-0.9-5.4-1.5-7.9-1.6c-2.5-0.1-5.5-0.1-8.2,0.5c-0.3-0.4-0.6-0.9-0.9-1.3c0,0,0,0,0,0   c1.9-1.6,1-4.3-0.7-5.5c-2.2-1.6-2.6-6.3-3.2-8.8c-0.5-1.9-0.8-3.8-1.3-5.6c0.4-0.6,0.6-1.3,0.6-2.1c0-2.4-0.1-4.8-0.1-7.2   c1.5-0.5,2.6-1.7,2.3-3.7c-0.2-1.4-0.2-2.8-0.1-4.1c0.5-1.5,1.1-3.1,1.6-4.6c0.9-2.6,2-5,3.2-7.5c2.2-3.4,3.6-6.7,6.6-9.7   c0.5-0.5,0.8-1.1,1-1.8c0.1,0,0.2-0.1,0.4-0.1c1.1-0.5,1.9-0.9,2.8-1.8c0.2-0.2,0.4-0.5,0.6-0.7c0.9-0.7,1.9-1.4,2.8-2.1   c1.3-1,2.2-2.6,1.6-4.2c0.6-0.7,1.1-1.4,1.7-2.1c0.6-0.6,0.9-1.3,0.9-2c0.8-0.8,1.6-1.5,2.4-2.2c0.3-0.3,0.5-0.6,0.7-0.9   c1.6-1,3.2-2.1,4.6-3.4c0.5-0.4,0.7-0.9,0.9-1.3c2.7-2.3,5.3-4.8,8.2-7c0.3-0.2,0.5-0.5,0.6-0.8c4.4-2.4,8.5-5.5,13-7.8   c0.3-0.1,0.1-0.6-0.2-0.5c-5.3,1.7-10.2,4.4-15.3,6.4c-0.4,0.2-0.6,0.4-0.8,0.7c-2.2,0.9-4.7,1.4-6.8,2.6c-1.3,0.8-2.5,1.9-3.8,2.9   c-0.1,0-0.2,0-0.2,0.1c-3.2,1.8-7.3,3.4-10,5.9c-3.7,3.3-7.3,6.8-10.7,10.5c-6.8,7.4-13.9,16.4-17.7,25.8   c-3.5,8.8-5.6,18.2-4.5,27.7c1.1,9.6,5.9,17.1,11.9,24.1c-5.1-1.7-9.4-3.8-15.2-1.1c-5.4,2.5-9.3,7.2-11.4,12.7   c-0.4,1-0.6,1.9-0.9,2.9c-0.2,0.3-0.3,0.5-0.5,0.8c-0.1,0.1-0.1,0.2-0.1,0.4c-1,0.1-1.9,0.7-2.2,1.9c-3.6,10.2-0.9,23.4,7.3,30.7   c9.8,8.6,25.8,7.8,35.9,0.4c0.8-0.6,1.8-1.8,2.4-3.1c3.6,3.3,8.9,4.7,14.6,5.2c2.8,1.1,5.9,1.7,9.4,2.2c1.6,0.2,3.3,0.3,5.1,0.3   c3-2,6.7-3.1,10.5-3.5c0.2-0.2,0.3-0.3,0.5-0.5c0.2-0.2,0.4-0.5,0.5-0.8c0.2,0.4,0.5,0.8,0.9,1.1c2.8-0.2,5.7,0,8.3,0.4   c4.6,0.7,11.6,2,14.4,6.4c1.1-0.1,2.2-0.1,3.3-0.1c0.6,0,3.1,0.4,2.5-0.2c1.1,1.1,2.7,1.5,4.2,1.1c5.8-1.7,11.7-4,17.3-6.5   c3.7-3.9,8.8-7,14.1-7.8c0.6-0.5,1.3-1,1.9-1.6c0,0.5,0.1,0.9,0.3,1.3c1.2-0.1,2.5,0,3.7,0.2c5,0.9,8.5,4.1,12.5,7   c0.4,0.3,0.9,0.6,1.3,1c1.4,0.1,2.8,0,4.3-0.2c4-0.7,7.6-2.2,11.3-4c2.9-1.4,6.4-2.7,7.5-5.9c1.9-0.9,4.1-2.1,6-3.4   c-0.8,1.9,1.5,3.6,3.3,3.3c0.2,0,0.4-0.1,0.6-0.1c3.8,4.2,10.4,5.4,15.8,4.1c6-1.4,14.9-4.2,18.3-9.7c0.4-0.6,0.3-1.3,0-1.8   C310.5,233.5,312.9,231.1,312.2,227.7z M87.5,231.8c-0.4-0.9-0.5-1.9-0.2-2.9c0.2,0.9,0.5,1.7,0.5,2.4   C87.6,231.4,87.6,231.6,87.5,231.8z M110.2,214.7c-0.7,0.4-1.4,1-1.9,1.9c-0.8,1.6-1.5,3.2-2,4.9c-0.6,1.4-0.6,1.7,0.2,1   c-0.7,0.7-1.1,1.6-1.5,2.5c-1.2,2.6-1.5,5.2-0.8,7.8c-0.5,1.6-0.7,3.2-0.5,4.7c-0.1,0-0.2,0-0.3,0.1c-0.4,0.2-0.7,0.5-1,0.9   c-0.1-1.3-0.5-2.6-1.5-3c-0.1-0.1-0.2-0.2-0.3-0.3c-0.9-0.5-1.8-0.8-2.9-1c-1.9-0.4-1.4-2.1-1.4-3.9c0-1.5-1.7-2.1-2.8-1.2   c-0.6,0.5-1.1,0.9-1.7,1.4c-0.5-1.3-1-2.6-1.5-3.9c-0.6-1.6,1-5.2,1.5-6.9c0.3-0.9-0.2-1.6-0.9-2c0.2-0.2,0.4-0.3,0.6-0.5   c1.5,0.4,3.1,0.1,4.3-1.4c0.5-0.6,1.1-1.2,1.6-1.7c1.8-0.4,3.5-1.1,4.8-2c0.9-0.3,1.6-0.7,2.4-1.1c1.1,0.5,2.3,0.5,3.4,0.1   c1.2,1,2.8,1.5,4.2,1c0.3-0.1,0.5-0.2,0.8-0.3C112.1,212.7,111.1,213.7,110.2,214.7z" fill="#231F20" opacity="0.6"/><path d="M121.9,188.4c-1.6-3.3-4-5.8-5.3-9.3c-0.5-1.4-1.6-2.1-2.8-2.1c0-0.6-0.1-1.1,0-1.7   c0-0.9-0.5-1.6-1.3-1.9c-0.1-1.2-0.3-2.4-0.7-3.6c0-0.1-0.2-0.1-0.2-0.1c-1.4,1.7-1.8,3.9-2.8,5.8c-0.4,0.8-0.2,1.7,0.3,2.2   c-0.1,0.7-0.2,1.5-0.4,2.2c-0.6,2.1,1.3,3.7,3.2,3.4c1.7,4.1,4.3,8.2,9.3,6.9C122,190.1,122.3,189.1,121.9,188.4z" fill="#231F20" opacity="0.6"/><path d="M155.3,188.3c-2.7-1.7-5.8-1.7-8.9-2.2c-1.5-0.3-6.7-0.3-7.2-2.2c-0.7-2.6-3.3-3.3-5.4-2.5   c-0.2-0.3-0.4-0.6-0.6-1c-0.9-1.6-3-2-4.4-1.2c-0.9-1-1.5-2.3-2.1-3.5c-0.4-0.9-1.6-0.5-1.8,0.2c-1.6,4.3-0.5,7.7,3.2,10.4   c0.4,0.3,0.8,0.4,1.2,0.5c0.6,0.8,1.2,1.6,1.8,2.4c0.6,0.7,1.6,1.1,2.7,1.1c4.8,5.7,15.6,7.9,21.6,4.5   C157.9,193.4,157.7,189.8,155.3,188.3z" fill="#231F20" opacity="0.6"/><path d="M121.8,165.7C121.9,165.7,121.9,165.7,121.8,165.7c-0.3-0.6-0.6-1.2-0.8-1.8   c0-0.2,0-0.4-0.1-0.7c0-1-0.2-1.9-0.2-2.9c0-0.9-0.3-1.6-0.8-2.1c0.9-2.3-0.1-4.3-2-5c-0.2-0.3-0.3-0.5-0.5-0.7   c0.2-0.5,0.5-0.9,0.7-1.3c0.6-1.3,0.6-2.4,0.2-3.8c-0.3-1.3-1.7-2.3-3-2.3c-5.8,0.1-7.4,7.1-6.5,11.7c0.2,1.3,1.1,2.2,2.1,2.6   c0.4,1,1.1,1.6,1.9,1.9c0,0.1,0,0.1,0,0.2c0.2,1.5,1.4,2.9,2.8,3.3c0.2,0.4,0.5,0.7,0.9,1c0.4,0.4,0.8,0.6,1.3,0.6   c0.6,0.5,1.1,1.1,1.8,1.5C121.1,169,122.6,167,121.8,165.7z" fill="#231F20" opacity="0.6"/><path d="M145.4,153.8c-0.3-0.8-1.3-1.4-2.2-1.9c0-0.6-0.1-1.3-0.5-2.1c-0.3-0.6-0.9-1.1-1.6-1.4   c-0.1-1.9-0.7-3.8-1.2-4.9c-0.4-0.9-1.2-1.8-2.1-2.1c-0.2-1.4-0.6-2.8-1.1-4.1c0.2-0.6,0.3-1.2,0.5-1.9c0.2-1-0.2-1.9-0.9-2.4   c0.3-0.7,0.7-1.2,1.3-1.8c1-1.1-0.3-3.2-1.7-2.2c-2.1,1.5-3.3,3.3-4.3,5.6c-0.3,0.7-0.1,1.3,0.3,1.8c-0.1,0.3-0.2,0.6-0.3,0.9   c-0.3,0.7-0.3,1.4-0.1,2c-0.2,0.8-0.5,1.8-0.5,1.9c-0.3,1.7,0.1,3.3,0.5,4.9c0.6,2.3,1.8,5,3.8,6.5c0.4,1,1.2,1.8,2.4,2.1   c0.1,0,0.1,0,0.2,0c0.1,0.2,0.2,0.3,0.4,0.4c1,1,1.9,1,3.2,0.8c1.2-0.1,3.1,0.2,3.8-1C145.9,154.8,145.9,154.2,145.4,153.8z" fill="#231F20" opacity="0.6"/><path d="M141.8,168.2c-0.5-1.4-1.9-2.3-3.3-3c-0.1-0.5-0.3-0.9-0.5-1.3c-0.4-0.8-1.2-1-1.9-0.9   c-0.2-0.5-0.9-0.7-1.2-0.1c-0.5,0.9-1,1.7-1.3,2.6c-0.1,0.2-0.2,0.5-0.3,0.8c-0.3,1.2,0.2,2.3,1.2,3c0.8,0.5,1.6,1.1,2.3,1.7   c1.1,0.9,2.7,0.9,3.9,0.2C142,170.8,142.9,169.2,141.8,168.2z" fill="#231F20" opacity="0.6"/><path d="M255.2,181.1c-0.9,2.2-1.4,4.5-4,5.3c-1.3,0.4-2,2-3,2.8c-1.4,1-3.1,1.2-4.7,1.1   c-1,0-1.9,1.1-1.5,2c-0.4-0.1-0.7-0.3-1.1-0.5c-0.7-0.4-1.2,0.6-0.6,1c0.8,0.6,1.5,1.1,2.3,1.5c0.4,0.2,0.8,0.1,1.1-0.1   c0.4-0.3,0.6-0.4,0.7-0.6c1.1,0.1,2.2,0,3.4-0.2c2.2-0.4,3.6-2.3,5.7-2.5c3.9-0.3,6.8-4.7,7.7-8.2   C262.4,178.8,256.7,177.5,255.2,181.1z" fill="#231F20" opacity="0.6"/><path d="M270.7,189.8c-2.3,0.2-3.4,1.8-5.3,2.8c-0.6,0.3-2.9,1.2-2.6,2.3c0.4,1.8,2.8,1.7,4.2,1.4   c2.3-0.5,5.1-1.5,5.7-4C272.9,191.2,272.1,189.7,270.7,189.8z" fill="#231F20" opacity="0.6"/><path d="M178.9,186.6c-1.1-2.1-4-2.9-6.5-3c-0.4-0.9-1.4-1.6-2.4-1.2c-0.2,0.1-0.4,0.2-0.5,0.2   c-0.2-0.3-0.5-0.7-0.8-1c-0.5-0.6-1.6-0.1-1.6,0.7c0,0.8-0.1,1.7,0,2.5c0.1,0.7,0.4,1.3,1.1,1.6c0,0.1,0,0.2,0,0.3   c0.2,0.8,0.9,1.5,1.7,1.7c1.1,0.2,2.2,0.3,3.3,0.5c1.1,0.3,1.8,1,2.9,1.3C178.2,190.7,180,188.6,178.9,186.6z" fill="#231F20" opacity="0.6"/><path d="M226.4,178.3c-1.1,0.8-2.1,2-3.3,2.7c-1.4,0.8-2.7,0.9-4.2,1.2c-0.6,0.1-1.2,0.7-1.3,1.3   c-0.2,1.1-0.9,0.8-1.4,0.7c-0.2,0-0.4,0.3-0.2,0.4c0.5,0.2,0.9,0.6,1.1,1.1c0.2,0.3,0.6,0.5,0.9,0.4c1-0.4,2.3,0.3,3.4,0.5   c1.4,0.2,2.7,0.3,4.2,0.1c3.1-0.4,5.2-2.6,5.4-5.7C230.9,178.8,228.1,177,226.4,178.3z" fill="#231F20" opacity="0.6"/><path d="M188.5,238.4c-1.5-0.4-3-0.9-4.6-1c-1.4-0.1-1.9-1.7-3.5-1.7c-4.1,0-7.1-1.1-7.6-5.9   c0-0.1-0.1-0.2-0.2-0.1c-2.4,2.2-2.1,5.4,0.6,7.2c1.1,0.8,2,1.7,3.4,1.8c0.8,0.1,1.6,0.2,2.4,0.3c0.2,1.6,1.4,3.1,2.9,3.8   c2.7,1.3,5.5,0.3,7.4-1.8C189.9,240.1,189.7,238.7,188.5,238.4z" fill="#231F20" opacity="0.6"/><path d="M212.2,227.1c-0.2-0.1-0.5-0.1-0.7,0c-1.5,1.1-1.8,2.3-3.8,2.9c-1.8,0.5-3.5,0.9-4.9,2.1   c-0.3-0.2-0.5-0.3-0.9-0.5c-1-0.3-1.9-0.1-2.9,0c-1.1,0.1-2.2,0.4-2.8,1.3c-0.1,0.1,0,0.3,0.2,0.3c2.4-0.2,4.3,0.9,6.4,1.6   c0.8,0.3,1.5-0.6,2.2-0.9c1-0.4,2.1-0.4,3.2-0.5c1.8-0.2,3.4-0.5,4.6-2C213.8,230.1,213.7,228.1,212.2,227.1z" fill="#231F20" opacity="0.6"/><path d="M185,227.6c-1.2-0.9-2-1-2.2-2.7c-0.1-0.7-0.5-1.3-1.1-1.4c0-0.1,0.1-0.2,0.1-0.3   c0.1-0.4-0.3-0.8-0.7-0.7c-0.6,0.2-1.4,0.4-1.9,0.9c-0.6,0.6-0.9,1.4-1.2,2.2c-0.5,1.1,0.8,1.9,1.7,1.7c0.1,0,0.2-0.1,0.3-0.1   c0.2,0.8,0.6,1.5,1.3,2.1c0.8,0.8,2.8,2.1,4,1.8c0.8-0.2,1-0.8,1.1-1.5C186.6,228.6,185.6,228,185,227.6z" fill="#231F20" opacity="0.6"/><path d="M140.1,229.6c-1.1,0.3-0.9,0.4-1.6-0.6c-0.5-0.7-1.1-1.3-1.7-1.8c-0.9-0.7-1.9-1.2-3-1.5   c0-0.2,0-0.3-0.1-0.5c-0.1-0.3-0.3-0.6-0.5-0.9c0.8-1.3,1.7-2.9,0-3.8c-2.5-1.5-4.2,1.8-4.7,3.7c-0.3,0.9,0.2,1.8,1,2.3   c0.1,0.1,0.2,0.1,0.3,0.2c-0.3,1.2,0.6,2.2,1.7,2.3c2.3,0.1,4.2,0.9,5.7,2.7c0.5,0.7,1.3,0.8,2,0.3c0.6-0.5,0.9-1,1.4-1.5   C141,230.1,140.6,229.5,140.1,229.6z" fill="#231F20" opacity="0.6"/><path d="M149.2,223.6c-0.7-0.7-1.4-0.8-2.3-0.6c-0.2-0.1-0.5-0.3-0.6-0.4c-0.6-0.3-1.4-0.3-1.8,0.2   c-0.3,0.4-1.4,0.2-1.9,0.3c-0.2,0-0.2,0.2-0.2,0.4c0.4,0.9,0.9,1.2,1.6,1.5c0.2,0.7,0.7,1.2,1.4,1.5c1.4,0.6,3,0.6,4-0.8   C150,225.1,149.7,224.1,149.2,223.6z" fill="#231F20" opacity="0.6"/><path d="M244.8,225.6c-0.8-1.6-2.3-2-3.8-2.7c-0.3-0.6-0.7-1-1-1.6c-0.2-0.4-0.7-0.7-1.2-0.7   c0,0-0.2-0.4-0.4-0.7c-0.1-0.1-0.2-0.1-0.2,0c-0.5,0.8-0.9,1.2-0.8,2c-0.2,0.7-0.3,1.3-0.2,2.1c0.2,1.4,0.5,1.8,1.6,2.6   c1.6,1.2,3.6,2.1,5.5,0.8C245,227,245.2,226.3,244.8,225.6z" fill="#231F20" opacity="0.6"/><path d="M262.8,227c-0.1-0.3-0.4-0.6-0.8-0.6c-1.5,0.1-2.5,1.5-3.8,2.2c-1.3,0.7-2.7,1.2-3.9,2   c-0.6-0.4-1.2-0.8-2-0.6c-0.1,0-0.1,0.2-0.1,0.2c0.5,0.5,1,1.3,1.4,1.9c0.2,0.3,0.7,0.3,1,0.1c1.8-0.8,3.7-0.8,5.5-1.4   C261.8,230.4,263.6,228.8,262.8,227z" fill="#231F20" opacity="0.6"/><path d="M298.9,229.2c-1-2.4-3.8-2.2-6-2.1c-0.9,0-1.8-0.2-2.5,0.5c-0.5,0.5-1.6,0.3-2.3,0.3   c-0.3,0-0.5,0.4-0.2,0.6c0.5,0.4,0.9,0.9,1.4,1.3c0.7,0.5,1.9,0.6,2.6,0.9c1.9,0.8,4.9,1.7,6.5,0.1   C298.9,230.4,299.1,229.8,298.9,229.2z" fill="#231F20" opacity="0.6"/><path d="M303.9,218.4c-0.2-0.6-0.6-1-1.2-1.2c-0.3-0.1-0.6-0.1-0.9,0c-0.4,0.2-0.5,0.2-0.3,0.1   c-0.2,0.1-0.4,0.1-0.6,0.2c-0.3,0.1-0.6,0.2-0.8,0.4c-0.1-0.1-0.1-0.2-0.2-0.3c-0.6-0.8-1.8-0.3-1.6,0.7c0.2,1,0.1,2.1,0.4,3.1   c0.3,1.2,2.1,1.5,2.7,0.4c0.1-0.3,0.3-0.5,0.4-0.6c0,0,0,0,0,0c0.1,0,0.2-0.1,0.3-0.1c0.4-0.3,0.9-0.6,1.3-1   C303.9,219.7,304.1,219,303.9,218.4z" fill="#231F20" opacity="0.6"/></g><g id="light"><path d="M207.6,103.9c-1-1.4-2.6-2.2-4.2-2.8c-1.4-0.5-2.8-0.4-4.2-0.2c-0.7,0-1.4,0.1-2.1,0.4   c-3.1,1.3-5.3,4.1-4.3,7.6c1,3.6,4.3,4.8,7.6,4.3c-1.5,0.2,0.2,0,0.4,0c1.5-0.1,2.7-0.4,4.1-1.1c1.1-0.6,2.1-1.3,2.8-2.4   C209.5,108.4,209.5,105.2,207.6,103.9z" fill="#FFFFFF" opacity="0.5"/><path d="M264.8,141.4c-1.8-2.9-4.1-6.2-6.8-9.1c0-0.3,0.1-0.5,0.1-0.8c0.2-3.1-2.2-5.1-4.9-5.5   c-0.6-0.6-1.2-1.3-1.7-1.8c-1.2-1.2-2.4-2.4-3.7-3.6c-0.5-0.5-1-1-1.6-1.4c-3-2.7-6.3-5.2-9.7-6.9c-1.7-0.9-3.5-1-5.1-0.5   c-1.5-0.3-3-0.5-4.6-0.5c-0.1-0.2-0.2-0.3-0.3-0.5c-0.5-0.8-1.9-1.2-2.6-0.3c-1.2,1.4-2.5,2.4-3.2,4.1c-0.2,0.5,0.3,0.9,0.7,0.5   c0.3-0.3,0.7-0.5,1-0.7c0.2,1.2,1.4,2.1,2.7,2.2c0.5,0.1,1,0.2,1.4,0.3c-0.3,1.4,0,2.9,0.8,4.4c1.8,3,4.4,4.8,7.6,5.9   c1.4,1,2.8,2,4.1,3c0.3,0.2,0.5,0.4,0.8,0.7c-0.1,2.7,2.6,5.4,5.3,5.2c0,0,0,0,0,0c0.1,0.1,0.2,0.1,0.3,0.2   c0.1,0.1,0.1,0.1,0.1,0.2c0.3,4.1,4.4,6.8,7.9,5.6c1.4,1.9,2.6,3.9,3.5,5.3c3.6,5.7,5,12.6,8.7,18.1c0.8,1.2,2.3,1.4,3.4,0.4   C275.8,159.7,268.5,147.3,264.8,141.4z" fill="#FFFFFF" opacity="0.5"/></g><g id="a"/><g id="a_shad"/><g id="a_light"/><g id="b"/><g id="b_shad"/><g id="c"/><g id="c_shad"/><g id="c_lght"/><g id="d"/><g id="d_shad"/><g id="d_lght"/><g id="Layer_28_copy"><g><g id="XMLID_1_"><g><path d="M71.2,211.1c5.4-7.8,13.4-15.4,23.1-12.6l-0.2,1.4c-9.3-1-17.4,9.5-21,16.7c-3.8,7.5-5.4,17-1,24.7      c4.3,7.3,12.3,11.3,20.6,12.2c4.4,0.4,8.7,0.2,13-0.8c2.9-0.7,5.5-2,8.1-3.2l2.1,1.8c-2.9,1.9-6.1,3.4-9.5,4.5l68.9,174.6      c1.5,3.6,3.8,6.5,6.5,8.5c2.7,2,5.9,3.1,9.4,3.1c7.1,0,13.5-4.7,16.7-12.3l71.5-181.7c-3.6-1.1-7.1-2.9-10.4-5.3l1.7-2.2      c13.6,5.8,30.9,4.8,38-10.2c2.9-6.1,3.3-13.7-0.1-19.7c-4.6-8.2-12.5-10.4-20.1-14.3l0.6-2.1c9,0.8,18.8,7.7,22.9,15.4      c3.8,7.2,4,15.5,0.5,22.9c-3.6,7.5-10,13.6-18.2,15.7c-3.7,0.9-7.2,1.1-10.6,0.7c-0.1,0.2-0.1,0.4-0.2,0.5l-71.5,181.8      c-1.9,4.6-4.9,8.3-8.4,10.9c-3.6,2.6-7.8,4-12.2,4c-8.6,0-16-5.3-19.8-14.2l-69.1-175.1c-14,2.8-29.7-1.6-35.4-15.6      C62.7,231,65.1,219.8,71.2,211.1z" fill="#231F20"/><path d="M100.9,204.4c-2-1.2-3.8-2.7-5.3-4.4c-0.1,0-0.2,0-0.3,0c-0.4-0.1-0.8-0.1-1.2-0.2l0.2-1.4      c-7.2-9.1-9.4-23.3-8.1-33.9c2.1-16.6,11.6-32.6,23.3-44.3c32.8-32.8,87.1-45.1,129-23.6c21.2,10.9,41.1,29.7,49.3,52.5      c4,11,4.5,22,3,33.5c-0.5,3.6-1,7.6-2,11.5l-0.6,2.1c-1.2,3.9-3,7.6-5.8,10.3c-1,1-2.5-0.5-1.5-1.5c5.3-5.8,5.6-17.5,6.1-24.8      c0.6-9.6,0.4-19.1-3-28.2c-9-24.6-31.1-45.2-55.3-54.7c-23.8-9.4-48.9-8.7-72.8-0.1c-22.5,8-44.5,22.3-56.8,43.3      c-5.8,9.9-9.9,20.9-9.5,32.5c0.4,10.9,3.4,23.1,11.9,30.6C102.1,203.9,101.5,204.8,100.9,204.4z" fill="#231F20"/><path d="M233.3,272.9c10.5,8.5,13.4,21,11,32.8c-2.5,12-12.8,22.7-28.4,20.2c-12.5-2-18.8-13.2-22.1-23.3      c-0.2-1.7-0.5-3.3-0.6-5c-0.2-2-0.1-4-0.3-6c0.2-1.5,0.3-2.9,0.6-4.3c0.4-1.7,0.9-3.2,1.6-4.8c3.3-4.8,6.7-9.3,12.4-12.6      C216.4,264.7,226.1,267,233.3,272.9z M230.5,296.5c0-6.8-5.5-12.4-12.4-12.4c-6.9,0-12.4,5.5-12.4,12.4      c0,6.9,5.5,12.4,12.4,12.4C225,308.9,230.5,303.3,230.5,296.5z" fill="#FFFFFF"/><path d="M233.2,248.7c3.5,1.9,6.3,4.6,8,7.9c0.2,0.5,0.2,1-0.1,1.5c-0.4,0.7-1.4,0.9-2,0.5      c-0.8-0.6-1.5-1.2-2.3-1.7l-0.1-0.1c-4.2-3.2-8.1-6.2-13.4-6.2c-0.2,0-0.4,0-0.6,0c-5.6,0.2-10.5,2.9-15.6,8.4      c-0.3,0.3-0.7,0.5-1.2,0.5c-0.7,0-1.3-0.4-1.6-1c-0.3-0.5-0.2-1.1,0.1-1.6c3-4.5,6.9-7.8,11.1-9.5c2.2-0.9,4.5-1.4,6.9-1.4      l0.4,0C226.5,246.1,230.1,247,233.2,248.7z" fill="#A87C4F"/><path d="M243,255.7c0.6,1.1,0.5,2.4-0.2,3.5c-0.6,1-1.8,1.7-2.9,1.7c-0.7,0-1.4-0.2-1.9-0.6      c-0.8-0.6-1.6-1.2-2.4-1.8l0.5-0.9l0.6-0.8l0.1,0.1c0.8,0.6,1.5,1.2,2.3,1.7c0.6,0.4,1.6,0.2,2-0.5c0.3-0.5,0.3-1.1,0.1-1.5      c-1.7-3.3-4.5-6.1-8-7.9l0.9-1.8c1.9,1,3.6,2.2,5,3.6c6.7,0.3,13.7-1.7,19.2-5c5.2-3.2,10.2-7.9,12-13.9      c2.1-6.9-0.1-12.9-2.7-19.3c-0.4-0.9,0.9-1.4,1.5-0.9c9.1,8.5,7.7,20.2,1.5,29l-1.7,2.2c-2.5,3-5.6,5.6-9,7.4      c-5.3,2.9-11.4,4.7-17.3,4.8C242.7,255.1,242.9,255.4,243,255.7z" fill="#231F20"/><path d="M218.1,284.1c6.9,0,12.4,5.5,12.4,12.4c0,6.9-5.5,12.4-12.4,12.4c-6.9,0-12.4-5.5-12.4-12.4      C205.7,289.6,211.3,284.1,218.1,284.1z M220.4,298.7c6.4,0,6.4-10,0-10C213.9,288.7,213.9,298.7,220.4,298.7z" fill="#231F20"/><path d="M233.2,248.7c-3.1-1.6-6.7-2.6-10.4-2.7l-0.4,0c-2.3,0-4.6,0.5-6.9,1.4l-0.7-1.9      c0.4-0.2,0.7-0.3,1.1-0.4c0.9-0.7,1.7-1.5,2.5-2.4c3.1-3.4,5.3-7.3,6-11.9c1-5.7-0.7-10.8-1.9-16.3c-0.1-0.6,0.7-1,1-0.4      c5.6,9.3,5.9,20.6-0.5,29.3c0.2,0.2,0.4,0.5,0.6,0.7c3.7,0.2,7.3,1.2,10.4,2.8L233.2,248.7z" fill="#231F20"/><path d="M220.4,288.7c6.4,0,6.4,10,0,10C213.9,298.7,213.9,288.7,220.4,288.7z" fill="#FFFFFF"/><path d="M206.3,364.6c0.3,3.7,1.3,7-1.4,10.5c-2.7,3.5-7.3,5.1-11.5,5.6c-10.1,1.3-17.6-4.4-16.5-14.8      c3.7,0,7.3-0.1,10.4,0c1,0,2,0,3,0c-0.4,2.1,0.5,4.4,0.1,6.6c-0.2,1.1,1.5,1.5,1.7,0.5c0.4-2.1,1.3-5,0.3-7.1      C197,365.8,201.7,365.4,206.3,364.6z" fill="#D66976"/><path d="M207.5,269.9c-5.7,3.3-9.1,7.9-12.4,12.6l-1.9-0.5c6.4-13.3,24.2-23.7,39.4-13.2      c13.1,9.1,17.9,23.5,14.6,37.5c-3,12.6-14.3,24.7-31,22c-14.2-2.3-21.5-14.2-24.2-25.5l1.8-0.2c3.2,10.1,9.6,21.3,22.1,23.3      c15.6,2.5,25.9-8.2,28.4-20.2c2.5-11.8-0.4-24.3-11-32.8C226.1,267,216.4,264.7,207.5,269.9z" fill="#231F20"/><path d="M155.6,358.8c11.1,3.7,21.8,4.1,33.5,4c6.8-0.1,13.6-0.6,20.2-2c5.7-1.2,11.1-3.4,16.8-4.7      c0.8-0.2,1.2,0.9,0.5,1.3c-5.1,3.4-11.3,5.5-17.7,6.8l-2.6,0.5c-4.6,0.8-9.3,1.2-13.8,1.3c1,2.1,0,5-0.3,7.1      c-0.2,1.1-1.9,0.6-1.7-0.5c0.4-2.2-0.5-4.5-0.1-6.6c-1,0-2,0-3,0c-3.2-0.1-6.8,0.1-10.4,0l-1.8,0c-7.5-0.2-15.1-1.2-20.1-6.2      C154.6,359.4,155,358.6,155.6,358.8z" fill="#231F20"/><path d="M170.1,262.6c2.1,0.8,4.3,1.7,6.8,2.3c0.3,0.1,0.5,0.1,0.8,0.1c1.4,0,2.7-0.8,3.4-2.1      c0.3-0.7,0.4-1.4,0.3-2c2.9-0.1,5.9-0.3,8.6-0.7c4.1-0.6,8.3-1.5,12.3-2.9c-0.1,0.7,0,1.5,0.4,2.2c0.7,1.2,2,2,3.4,2      c1,0,1.9-0.4,2.6-1.2c4.7-5.1,9.2-7.5,14.2-7.7c4.8-0.2,8.6,2.7,12.7,5.8l0.6-0.8l-0.5,0.9c0.8,0.6,1.6,1.2,2.4,1.8      c0.6,0.4,1.2,0.6,1.9,0.6c1.2,0,2.3-0.6,2.9-1.7c0.7-1.1,0.7-2.4,0.2-3.5c-0.1-0.3-0.3-0.6-0.5-0.8c5.9-0.1,12-1.9,17.3-4.8      c3.4-1.9,6.5-4.4,9-7.4c3.3,2.4,6.7,4.2,10.4,5.3l-71.5,181.7c-3.2,7.6-9.6,12.3-16.7,12.3c-3.5,0-6.6-1.1-9.4-3.1      c-2.7-2-5-4.9-6.5-8.5l-68.9-174.6c3.4-1.1,6.7-2.6,9.5-4.5c5.3,4.1,12.3,5.8,18.9,6.2c1.8,0.1,3.9,0.1,6.1,0      c-0.1,0.5-0.1,1.1,0,1.7c0.4,1.5,1.7,2.5,3.3,2.5l0.2,0c0.6,0,1.2-0.1,1.8-0.2c1.7-0.2,3.4-0.4,5.1-0.7c3.2-0.5,6.2-0.9,9.4-0.8      C163.9,260.1,166.9,261.3,170.1,262.6z M176.9,267.9c-8.1-5.3-18.4-4.2-26.1,0.8c-13.5,8.6-17.6,23.2-15.1,36.9      c2.4,12.7,13.5,24.9,30.1,22.9c15.8-1.9,23.4-15.6,25.8-27.9h0c0.1,0.8,0.3,1.5,0.5,2.3c2.7,11.4,10,23.3,24.2,25.5      c16.7,2.7,28-9.4,31-22c3.3-14-1.5-28.4-14.6-37.5c-15.2-10.5-33-0.1-39.4,13.2c-0.6,1.4-1.2,2.7-1.6,4.1      c-0.5-1.8-1.3-3.6-2.5-5.1C186.4,275.9,181.9,271.1,176.9,267.9z M226.6,357.3c0.7-0.4,0.2-1.5-0.5-1.3      c-5.7,1.3-11.1,3.5-16.8,4.7c-6.6,1.4-13.4,2-20.2,2c-11.7,0.1-22.4-0.3-33.5-4c-0.6-0.2-1,0.6-0.6,1c5,5,12.6,6,20.1,6.2      c-4.1,12.2,7,19.3,18.3,18.1c5.2-0.6,10.8-2.8,14-7c2.7-3.5,3.8-9,1.5-12.9C215.3,362.8,221.4,360.6,226.6,357.3z" fill="#F2DB91"/><path d="M190.5,296.9c-2.5-6-12-9-17.4-10.2c-7.1-1.6-14.5-0.8-21.1,2.2c-0.5,0.2-0.1,1,0.3,0.9      c6.6-2,13.4-2.1,20.1-0.6c3.3,0.8,6.5,2.1,9.6,3.7c1,0.6,2,1.3,2.9,2c-1.3-0.4-2.5-0.7-3.4-0.9c-5.7-1.4-11.7-1.4-17.5-0.9      c-7.5,0.6-20.1,2-25.9,8.6c-1.2-10.2,2.4-20.3,10.7-28c7-6.4,16.3-8.6,25.7-4.4c7.2,3.3,10.8,9.4,14.8,15.2      c0.3,0.8,0.6,1.6,0.8,2.4c0.2,0.9,0.4,1.8,0.6,2.7c-0.1,1,0,2.1,0,3.2c0,1.4,0,2.8,0,4.2c-0.1,0.3-0.1,0.5-0.2,0.8      c0,0-0.1-0.1-0.1-0.1C190.6,297.5,190.6,297.2,190.5,296.9z" fill="#E5C776"/><path d="M186.3,298.7c1.2,0.6,2.3,1.6,3.5,2.1c-3,10.4-8.9,21.8-21.6,24.9c-15.5,3.8-26.2-7.7-29.2-19.2      c-0.2-0.8-0.4-1.7-0.5-2.5c7.7-5.1,16.6-7.1,25.6-7.9c5.2-0.4,10.6-0.3,15.8,0.6C182,297.1,184.2,297.7,186.3,298.7z" fill="#E5C776"/><path d="M179.2,262c-0.3,0.7-1.2,1.1-1.9,0.9c-2.3-0.5-4.5-1.4-6.5-2.2c-3.3-1.3-6.5-2.5-10.2-2.7      c-0.4,0-0.8,0-1.2,0c-2.9,0-5.7,0.4-8.6,0.9c-1.6,0.2-3.3,0.5-4.9,0.7c-0.6,0-1.1,0.1-1.7,0.1h-0.1c-0.6,0-1.1-0.4-1.3-1      c-0.2-0.6,0.1-1.3,0.6-1.6c2.1-1.2,4.8-2.2,7.7-2.8c2.9-0.7,6-1,9.1-1c1.1,0,2.1,0,3.1,0.1c7.1,0.6,12.7,3.2,15.8,7.2      C179.4,260.9,179.5,261.5,179.2,262z" fill="#A87C4F"/><path d="M176.9,366c-1.1,10.3,6.4,16,16.5,14.8c4.2-0.5,8.8-2.2,11.5-5.6c2.7-3.4,1.7-6.8,1.4-10.5l2.6-0.5      c2.3,3.9,1.2,9.4-1.5,12.9c-3.2,4.2-8.8,6.5-14,7c-11.3,1.2-22.4-5.9-18.3-18.1L176.9,366z" fill="#231F20"/><path d="M161.7,251.2c0.6,0,1.1,0.1,1.7,0.1l-0.2,2c-1-0.1-2.1-0.1-3.1-0.1c-3.1,0-6.2,0.4-9.1,1l-0.6-2.6      c1.4-0.3,2.8-0.6,4.3-0.9c-7.4-10-4.3-24.6,5.1-32.2c0.8-0.6,1.9,0.4,1.1,1.1C152.3,227.2,152,244,161.7,251.2z" fill="#231F20"/><path d="M163.4,251.3c5.6,0.5,10.3,2.1,13.9,4.7c5.5,0.4,11.2-0.1,16.3-1.2c4.5-0.9,9.1-2.2,13.4-4.1      c2.4-2.3,5.1-4.1,7.9-5.2l0.7,1.9c-4.2,1.7-8.1,5-11.1,9.5c-0.3,0.5-0.4,1.1-0.1,1.6c0.3,0.6,1,1,1.6,1c0.4,0,0.9-0.2,1.2-0.5      c5.1-5.5,10-8.2,15.6-8.4c0.2,0,0.4,0,0.6,0c5.3,0,9.2,3,13.4,6.2l-0.6,0.8l-0.6,0.8c-4-3.1-7.8-6-12.7-5.8      c-5,0.2-9.5,2.6-14.2,7.7c-0.7,0.8-1.6,1.2-2.6,1.2c-1.4,0-2.7-0.8-3.4-2c-0.4-0.7-0.5-1.5-0.4-2.2c-4,1.3-8.1,2.3-12.3,2.9      c-2.8,0.4-5.7,0.7-8.6,0.7c0.1,0.7,0,1.4-0.3,2c-0.6,1.2-2,2.1-3.4,2.1c-0.3,0-0.6,0-0.8-0.1c-2.4-0.6-4.6-1.5-6.8-2.3      c-3.2-1.2-6.2-2.4-9.5-2.6c-3.2-0.1-6.2,0.3-9.4,0.8c-1.7,0.2-3.4,0.5-5.1,0.7l-0.2-2c1.7-0.2,3.3-0.4,4.9-0.7      c3-0.5,5.7-0.9,8.6-0.9c0.4,0,0.8,0,1.2,0c3.7,0.1,6.9,1.4,10.2,2.7c2.1,0.8,4.2,1.7,6.5,2.2c0.7,0.2,1.6-0.2,1.9-0.9      c0.2-0.5,0.2-1-0.1-1.5c-3.1-4.1-8.8-6.7-15.8-7.2L163.4,251.3z" fill="#231F20"/><path d="M146,261.5c-0.6,0.1-1.2,0.1-1.8,0.2l-0.2,0c-1.6,0-2.9-1-3.3-2.5c-0.1-0.6-0.1-1.1,0-1.7      c-2.2,0.1-4.3,0.1-6.1,0c-6.6-0.4-13.6-2.2-18.9-6.2l-2.1-1.8c-0.6-0.6-1.1-1.2-1.6-1.8c-8.5-10.7-4.1-33.5,10.9-35.3      c0.5-0.1,0.7,0.7,0.2,0.9c-11.7,5-15.4,26.8-4.5,34.3c6.1,4.2,13.7,5.4,21,5.4c3.7,0,7.2-0.6,10.6-1.3l0.6,2.6      c-2.9,0.7-5.5,1.6-7.7,2.8c-0.6,0.3-0.8,1-0.6,1.6c0.2,0.6,0.7,1,1.3,1h0.1c0.6,0,1.1-0.1,1.7-0.1L146,261.5z" fill="#231F20"/><path d="M150.8,268.6c7.8-4.9,18.1-6,26.1-0.8c5,3.2,9.5,8,12.3,13.2c1.2,1.5,1.9,3.2,2.5,5.1      c0.4-1.4,0.9-2.8,1.6-4.1l1.9,0.5c-0.7,1.6-1.2,3.2-1.6,4.8c-0.3,1.4-0.5,2.9-0.6,4.3c0.2,2,0.1,4,0.3,6c0.1,1.7,0.4,3.3,0.6,5      l-1.8,0.2c-0.2-0.8-0.4-1.5-0.5-2.3h0c-2.4,12.3-10,26.1-25.8,27.9c-16.6,1.9-27.7-10.2-30.1-22.9      C133.1,291.9,137.2,277.3,150.8,268.6z M173.1,286.6c5.4,1.2,15,4.3,17.4,10.2c0.1,0.3,0.1,0.7-0.1,0.9c0,0,0.1,0.1,0.1,0.1      c0.1-0.3,0.1-0.5,0.2-0.8c-0.1-1.4,0-2.9,0-4.2c0-1.1-0.1-2.1,0-3.2c-0.2-0.9-0.4-1.8-0.6-2.7c-0.2-0.8-0.5-1.6-0.8-2.4      c-3.9-5.8-7.6-11.9-14.8-15.2c-9.3-4.2-18.7-2.1-25.7,4.4c-8.4,7.6-11.9,17.8-10.7,28c5.8-6.6,18.4-8,25.9-8.6      c5.8-0.5,11.8-0.5,17.5,0.9c0.9,0.2,2.1,0.5,3.4,0.9c-0.9-0.7-1.9-1.5-2.9-2c-3-1.6-6.2-3-9.6-3.7c-6.7-1.5-13.5-1.4-20.1,0.6      c-0.5,0.1-0.8-0.7-0.3-0.9C158.6,285.8,166,285,173.1,286.6z M186.3,298.7c-2.1-1-4.3-1.6-6.5-2c-5.2-1-10.5-1-15.8-0.6      c-8.9,0.8-17.9,2.8-25.6,7.9c0.2,0.8,0.3,1.7,0.5,2.5c3,11.5,13.7,23,29.2,19.2c12.6-3.1,18.6-14.5,21.6-24.9      C188.5,300.3,187.5,299.3,186.3,298.7z" fill="#231F20"/></g><g/></g></g></g><g id="red_light"/><g id="Layer_19_copy"><path d="M141,281.1c-6.4-6.9-12.3-14.2-18.9-20.8c-3.1-3.1-6.4-6.1-9.7-8.9c-0.1,0-0.2,0.1-0.2,0.1   c-3.1,1.2-6.1,2.3-9.3,3c3.1,3.6,6.3,7,9.4,10.5c6.9,7.6,13.2,15.7,20.1,23.2c0.8,0.9,1.6,1.7,2.5,2.6c-3.1,2.8-6.2,5.6-9.4,8.4   c-1.2,1-2.3,2.1-3.5,3.1c0.9,1.8,1.6,3.8,2.2,5.4c0.7,2.1,1.4,4.2,2,6.3c1.4-0.8,2.6-1.5,3.6-2.2c2.7-1.6,5.2-3.4,7.6-5.4   C134.8,297.8,136.5,289,141,281.1z" fill="#E5C36E"/><path d="M232,355c-10.5-7.3-20.9-14.7-31.2-22.3c3.1-2.5,6.1-5,9.2-7.5c-4.1-1.6-7.4-5.3-10.1-9   c-3.3,2.7-6.6,5.5-9.9,8.2c-1.7-1.3-3.4-2.7-5.1-4c-0.8-0.7-1.7-1.3-2.5-2c-0.5,0.8-1.2,1.6-2,2.3c-2.2,1.8-4.6,3-7.2,4.2   c-0.1,0-0.2,0.1-0.3,0.1c1.4,1.1,2.7,2.2,4.1,3.3c1.4,1.1,2.8,2.2,4.2,3.3c-4.5,3.7-9.1,7.4-13.6,11.1   c-6.6,5.3-13.5,10.2-20.3,15.1c-1.5-1.3-3-2.6-4.4-3.9c2.7,6.2,5.4,12.3,7.7,18.7c6.6,5.5,13.4,10.9,20.3,16.1   c5.2,3.9,10.5,7.9,15.9,11.8c-7,4.4-14,8.5-21.1,12.6c1.4,3.1,2.5,6.3,3.7,9.4c2.1-1,4.2-2,6.3-3.1c7.3-3.6,14.3-7.6,21.2-11.9   c5.9,4,12,7.9,18.1,11.5c0.8-3.1,1.7-6.2,2.8-9.2c-1.9-1.2-3.8-2.3-5.7-3.5c-2.2-1.4-4.4-2.8-6.6-4.3c1.7-1.1,3.5-2.2,5.2-3.3   c5.3-3.4,10.5-6.9,15.7-10.5c1.1-4.2,3.8-7.6,5.7-11.4c0.7-1.7,1.3-3.5,2-5.3c1.2-4.4,2.7-8.4,4.4-12.4   C236.2,357.9,234.1,356.5,232,355z M203.2,389.7c-2.7,1.9-5.4,3.7-8.2,5.5c-6.8-4.8-13.5-9.7-20.1-14.7   c-6.3-4.8-12.5-9.8-18.6-14.8c5.5-3.3,10.9-6.9,16.1-10.8c6.6-4.8,13.1-9.9,19.5-15c10.8,8.1,21.9,16,33,23.7   c2.2,1.5,4.4,3.1,6.7,4.7C222.4,375.8,213,383,203.2,389.7z" fill="#E5C36E"/><path d="M266.4,258.4c-6.5,5.9-13,11.6-19.3,17.6c-1.7,1.6-3.5,3.2-5.2,4.8c4.8,6.2,5.1,15.3,3.5,23.1   c3.9,2.4,7.8,4.8,11.7,7.1c1.1-3.2,2.3-6.4,3.6-9.4c-4.3-2.6-8.5-5.2-12.8-7.9c2.5-2.2,5.1-4.5,7.6-6.8c6.4-5.9,12.5-12,18.4-18.3   c1.3-3.4,2.7-6.7,4.1-10.1c1.1-2.7,2.5-5.6,2.9-8.5c0.2-1.3,0.3-2.7,0.4-4.1C275.9,249.5,271.1,254.2,266.4,258.4z" fill="#E5C36E"/><path d="M173.5,267.3c2.2,1.1,4,2.6,5.6,4.4c3.4-3.1,6.8-6.3,9.8-9.9c1.5,1.2,3,2.3,4.5,3.5c3,2.4,6,4.8,9,7.3   c2.6-2.2,5.4-3.9,8.6-5.1c-3.2-2.5-6.5-5-9.7-7.4c-1.4-1.1-2.9-2.2-4.3-3.2c-4.9,1.8-10.6,2.7-15.9,2.3c0.1,1.2-0.4,2.5-1.3,3.4   c-1.6,1.6-4.4,1.8-6.2,0.3c-0.9-0.1-1.8-0.6-2.5-1.3c0-0.1-0.1-0.1-0.2-0.1c-0.1-0.1-0.2-0.1-0.4-0.2c-0.6,0.5-1.1,1-1.7,1.5   c-1.2,1.1-2.4,2.1-3.6,3.1C168.1,265.9,170.8,265.8,173.5,267.3z" fill="#E5C36E"/></g><g id="shadcone"><path d="M279.2,247.2c-1.3-1-3-1.1-4.6-1.4c-0.2,0-0.4-0.1-0.6-0.1c-0.5-0.4-1-0.8-1.5-1.1   c-0.4-1.1-1.4-1.9-2.8-1.9c-4.2,0.1-7.8,4-11.5,6c-4.1,2.2-8.8,3.6-13.5,4c-1.7,0.2-3.4,0.2-5.1,0c1.7,1.3,3.2,2.7,2.8,5   c-0.1,0.7-0.8,1.3-1.4,1.4c-1.5,0.3-2.6-0.3-3.8-1.2c-2.5-1.9-4.9-4-8-4.9c-8.3-2.5-15.1,1.7-21.3,6.9c-1,0.9-2.3,0.5-3-0.3   c-1.2-0.3-2.1-1.6-1.2-2.9c0.8-1.2,1.7-2.4,2.7-3.5c0,0,0,0-0.1,0c-5.5,2.6-11.4,4.2-17.4,5.3c-3.1,0.6-6.2,0.8-9.4,0.7   c0.3,0.6,0.6,1.3,0.7,2c0.3,1.3-0.6,2.6-2,2.6c-3.8,0.1-8.1-2.5-11.7-3.5c-7.2-1.9-13.3-0.6-20.5,0.4c-0.8,0.1-1.5-0.2-2-0.8   c-1.6-0.2-2.8-2.1-1.2-3.4c1-0.8,2.1-1.5,3.2-2.1c-3.5,0.7-7,1.2-10.7,1.3c-3.5,0.1-6.9-0.1-10.2-1c-1.9-0.5-3.8-1.4-5.6-2.1   c-0.3-0.8-0.8-1.4-1.7-2c-1.1-0.8-3-0.7-4.1,0c-1.5,0.9-2.9,1.8-4.4,2.6c-1.6,0.9-2.7,1.4-3.8,2.9c-0.3,0.4-0.3,1.1,0,1.6   c0.2,0.3,0.4,0.6,0.6,0.8c-0.8,1.2-0.8,2.8,0.6,4.3c0,0,0.1,0.1,0.1,0.1c0.5,0.7,1,1.3,1.6,2c2.2,3.3,3.2,7.5,4.3,11.3   c1.4,4.9,3,9.5,4.7,14.3c2.5,6.8,3.9,17.8,10.3,22c0.3,0.2,0.6,0.2,0.9,0.1c6.2,16.8,12,33.7,18.2,50.5c6.3,17.1,13.8,34,19.2,51.4   c2.1,6.7,4.2,13.1,7.9,19.1c3.6,5.8,7.6,8.7,13.4,11.8c1.5,0.8,3.1-0.3,3.3-1.7c4.1,1.7,9.2,2.4,10.4-1.9c0,0,0-0.1,0-0.1   c-1.7-1.6-4.4-1.4-6.5-1.9c-3-0.7-5.6-3.1-7.6-5.4c-2.1-2.3-3.6-4.8-5.1-7.4c-2.1-6-3.8-12.2-5.7-18.2   c-5.3-16.6-12.8-32.4-19.1-48.6c-6.7-17.2-12.5-34.9-19-52.2c-3.1-8.3-6-16.6-9-24.9c-1.5-4.1-2.7-8.3-4.1-12.4   c-0.9-2.7-1.9-5.1-2.5-7.7c3.2,1.1,6.7,1.6,9.4,1.9c8.1,0.8,18-0.8,25.4-4.5c2.4,3.5,7,5.4,10.9,6.7c6.6,2.2,13.9,1.5,20.7,0.5   c6.7-1.1,13.3-3.3,19.6-6c4.3-1.8,9.2-4,13.1-6.9c4.4,5.9,15.7,7.8,22,7.4c5.9-0.4,11.4-2.3,16.7-4.8c2.7-1.3,7-3.5,9.8-6.2   c1.8,1.4,3.9,2.1,6.3,2.1c1.4,0,2.9-0.4,3.9-1.4c1-0.9,1.1-2.4,1.2-3.7C281.4,247.2,280,246.7,279.2,247.2z" fill="#231F20"/><path d="M223.1,245c-1-0.4-2.2-0.3-3.4,0.3c0,0-0.1,0-0.1,0C220.8,245.1,222,245,223.1,245z" fill="#231F20"/></g><g id="lightcone"><path d="M262.2,278.8c-8.7,9.9-12.3,23.1-17,35.2c-5.1,13.3-11,26.6-14,40.6c-0.1,0.6,0.6,0.9,0.9,0.4   c8.3-11.2,12.9-24.8,17.8-37.7c4.7-12.5,10.9-25,12.3-38.4C262.4,278.8,262.3,278.8,262.2,278.8z" fill="#FFFFFF"/><path d="M263.7,263.4c-5.4,0-5.4,8.3,0,8.3C269.1,271.7,269.1,263.4,263.7,263.4z" fill="#FFFFFF"/></g><g id="Layer_23"/><g id="Layer_28_copy_2"><g><path d="M102.2,256.7l69.1,175.1c3.7,8.9,11.1,14.2,19.8,14.2c0,0,0,0,0,0c8.9,0,16.7-5.7,20.6-14.9l71.5-181.8    c0.1-0.2,0.1-0.4,0.2-0.5c3.4,0.4,6.9,0.3,10.6-0.7c8.2-2.1,14.7-8.2,18.2-15.7c3.5-7.4,3.3-15.7-0.5-22.9    c-4.1-7.7-13.9-14.6-22.9-15.4c1-3.9,1.5-8,2-11.6c1.5-11.5,0.9-22.5-3-33.4c-8.2-22.8-28.2-41.6-49.3-52.5    c-42-21.5-96.2-9.2-129,23.6c-11.7,11.7-21.2,27.7-23.3,44.3c-1.3,10.6,0.9,24.8,8.1,33.9c-9.7-2.8-17.7,4.9-23.1,12.6    c-6.1,8.8-8.5,19.9-4.4,30.1C72.5,255.2,88.2,259.5,102.2,256.7z M207.8,429.6c-3.2,7.6-9.6,12.3-16.7,12.3c0,0,0,0,0,0    c-6.9,0-12.8-4.3-15.9-11.6l-68.9-174.6c3.4-1.1,6.7-2.6,9.5-4.5c5.3,4.1,12.3,5.8,18.9,6.2c1.8,0.1,3.9,0.1,6.1,0.1    c-0.1,0.5-0.1,1.1,0,1.7c0.4,1.5,1.7,2.5,3.3,2.5c0,0,0,0,0,0l0.2,0c2.3-0.1,4.6-0.5,6.8-0.8c3.2-0.5,6.2-0.9,9.4-0.8    c3.4,0.1,6.4,1.3,9.5,2.6c2.1,0.8,4.3,1.7,6.8,2.3c0.3,0.1,0.5,0.1,0.8,0.1c1.4,0,2.7-0.8,3.4-2.1c0.3-0.7,0.4-1.4,0.3-2    c2.9-0.1,5.9-0.3,8.6-0.7c4.1-0.6,8.3-1.5,12.3-2.9c-0.1,0.7,0,1.5,0.4,2.2c0.7,1.2,2,2.1,3.4,2.1c1,0,1.9-0.4,2.6-1.2    c4.7-5.1,9.2-7.5,14.2-7.7c4.8-0.2,8.6,2.7,12.7,5.8l0.6-0.8l-0.5,0.9c0.8,0.6,1.6,1.2,2.4,1.8c0.6,0.4,1.2,0.6,1.9,0.6    c1.2,0,2.3-0.6,2.9-1.7c0.7-1.1,0.7-2.4,0.2-3.5c-0.1-0.3-0.3-0.6-0.5-0.8c5.9-0.1,12-1.9,17.3-4.8c3.4-1.9,6.5-4.4,9-7.4    c3.3,2.4,6.7,4.2,10.4,5.3L207.8,429.6z M179.1,260.5c0.3,0.4,0.4,1,0.1,1.5c-0.3,0.7-1.2,1.1-1.9,0.9c-2.3-0.6-4.4-1.4-6.5-2.2    c-3.3-1.3-6.5-2.5-10.2-2.7c-0.4,0-0.8,0-1.2,0c-2.9,0-5.7,0.4-8.6,0.9c-2.2,0.3-4.4,0.7-6.6,0.8l-0.1,0c-0.6,0-1.1-0.4-1.3-1    c-0.2-0.6,0.1-1.3,0.6-1.6c4.3-2.4,10.6-3.8,16.7-3.8C168.6,253.1,175.5,255.8,179.1,260.5z M241.3,256.6c0.2,0.5,0.2,1.1-0.1,1.5    c-0.4,0.7-1.4,0.9-2,0.5c-0.8-0.6-1.5-1.1-2.3-1.7l-0.1-0.1c-4.2-3.2-8.1-6.2-13.4-6.2c-0.2,0-0.4,0-0.6,0    c-5.6,0.2-10.5,2.9-15.6,8.4c-0.3,0.3-0.7,0.5-1.2,0.5h0c-0.7,0-1.3-0.4-1.6-1c-0.3-0.5-0.3-1.1,0.1-1.6    c4.6-6.9,11.2-10.9,18-10.9l0.4,0C230.8,246.2,238.1,250.3,241.3,256.6z M73.1,216.5c3.8-7.5,12.4-18.6,22.2-16.5    c0.1,0,0.2,0,0.3,0c1.6,1.7,3.3,3.2,5.3,4.4c0.6,0.3,1.2-0.5,0.7-0.9c-8.5-7.5-11.5-19.7-11.9-30.6c-0.5-11.6,3.7-22.6,9.5-32.5    c12.3-21,34.3-35.3,56.7-43.3c24-8.6,49-9.2,72.8,0.1c24.2,9.5,46.3,30.1,55.3,54.7c3.4,9.2,3.6,18.6,3,28.3    c-0.5,7.4-0.8,19-6.1,24.8c-0.9,1,0.5,2.5,1.5,1.5c2.8-2.7,4.6-6.3,5.8-10.3c7.7,3.9,15.5,6.1,20.1,14.3c3.4,6,3,13.6,0.1,19.7    c-7.1,15-24.4,16-38,10.2c6.2-8.8,7.7-20.5-1.4-29c-0.6-0.6-1.8,0-1.5,0.9c2.6,6.4,4.8,12.3,2.7,19.3c-1.8,6-6.8,10.7-12,13.9    c-5.4,3.3-12.5,5.3-19.2,5c-3.9-3.8-9.5-6.1-15.5-6.5c-0.2-0.2-0.4-0.4-0.6-0.7c6.4-8.6,6.1-20,0.5-29.3c-0.3-0.6-1.2-0.2-1,0.4    c1.2,5.5,2.9,10.5,1.9,16.3c-0.8,4.6-2.9,8.5-6,11.9c-0.8,0.8-1.6,1.6-2.5,2.4c-3.2,1.1-6.3,3-9,5.6c-4.3,1.9-8.9,3.2-13.4,4.1    c-5.1,1-10.8,1.6-16.3,1.1c-3.9-2.9-9.3-4.6-15.5-4.8c-9.7-7.1-9.4-23.9-0.8-31.6c0.8-0.7-0.3-1.7-1.1-1.1    c-9.4,7.5-12.5,22.1-5.1,32.2c-4.9,1-9.7,2.3-14.9,2.2c-7.3-0.1-14.9-1.2-21-5.4c-10.9-7.5-7.2-29.4,4.5-34.3    c0.4-0.2,0.2-1-0.2-0.9c-15,1.9-19.4,24.7-10.9,35.3c0.5,0.6,1.1,1.2,1.6,1.8c-2.6,1.2-5.2,2.5-8.1,3.2c-4.3,1-8.6,1.2-13,0.8    c-8.3-0.8-16.3-4.8-20.6-12.1C67.6,233.5,69.3,224,73.1,216.5z" fill="#282727"/><path d="M232.6,268.9c-16.8-11.6-36.6,2.2-41,17.3c-0.5-1.8-1.3-3.6-2.5-5.1c-2.8-5.2-7.3-10-12.3-13.2    c-8.1-5.3-18.4-4.2-26.2,0.8c-13.5,8.6-17.6,23.2-15.1,36.9c2.4,12.7,13.5,24.9,30.1,22.9c15.8-1.9,23.4-15.6,25.8-27.9    c0,0,0,0,0,0c2.3,12,9.5,25.4,24.7,27.8c16.7,2.7,28-9.4,31-22C250.5,292.4,245.8,278,232.6,268.9z M148.8,273.7    c7-6.4,16.3-8.6,25.7-4.4c7.2,3.3,10.8,9.4,14.8,15.2c0.3,0.8,0.6,1.6,0.8,2.4c0.2,0.9,0.4,1.8,0.6,2.7c-0.1,1,0,2.1,0,3.2    c0,1.4,0,2.8,0.1,4.2c-0.1,0.3-0.1,0.6-0.2,0.8c0,0-0.1-0.1-0.1-0.1c0.1-0.3,0.2-0.6,0.1-0.9c-2.5-6-12-9-17.4-10.2    c-7.1-1.6-14.5-0.8-21.1,2.2c-0.5,0.2-0.1,1,0.3,0.9c6.6-2,13.4-2.1,20.1-0.6c3.3,0.8,6.5,2.1,9.6,3.7c1,0.6,2,1.3,2.9,2    c-1.3-0.4-2.5-0.7-3.4-0.9c-5.7-1.4-11.7-1.4-17.5-0.9c-7.5,0.6-20.1,2-25.9,8.6C136.9,291.4,140.4,281.3,148.8,273.7z     M168.2,325.7c-15.5,3.8-26.2-7.7-29.2-19.2c-0.2-0.8-0.4-1.7-0.6-2.5c7.7-5.1,16.6-7.1,25.6-7.9c5.2-0.5,10.6-0.3,15.8,0.6    c2.2,0.4,4.4,1.1,6.5,2c1.2,0.6,2.3,1.6,3.5,2.1C186.8,311.2,180.8,322.5,168.2,325.7z M244.3,305.7c-2.5,12-12.8,22.7-28.4,20.2    c-12.5-2-18.8-13.2-22.1-23.3c-0.2-1.7-0.5-3.3-0.6-5c-0.2-2-0.1-4-0.3-6c0.2-1.5,0.3-2.9,0.6-4.3c0.4-1.7,0.9-3.2,1.6-4.8    c3.3-4.8,6.7-9.3,12.4-12.6c8.8-5.1,18.6-2.8,25.8,3C243.9,281.3,246.8,293.8,244.3,305.7z" fill="#282727"/><path d="M218.1,284.1c-6.8,0-12.4,5.6-12.4,12.4s5.6,12.4,12.4,12.4c6.8,0,12.4-5.6,12.4-12.4    S225,284.1,218.1,284.1z M220.4,298.7c-6.4,0-6.4-10,0-10C226.8,288.7,226.8,298.7,220.4,298.7z" fill="#282727"/><path d="M226.1,356c-5.7,1.3-11.1,3.5-16.8,4.7c-6.6,1.4-13.4,2-20.2,2c-11.7,0.1-22.4-0.3-33.5-4    c-0.6-0.2-1,0.6-0.6,1c5,5,12.6,6,20.1,6.2c-4.1,12.2,7,19.3,18.3,18.1c5.2-0.6,10.8-2.8,14-7c2.7-3.5,3.8-9,1.5-12.9    c6.4-1.3,12.5-3.5,17.7-6.8C227.3,356.8,226.8,355.8,226.1,356z M204.9,375.1c-2.7,3.4-7.3,5.1-11.5,5.6    c-10.1,1.3-17.6-4.4-16.5-14.8c3.7,0,7.3-0.1,10.4,0c1,0,2,0,3,0c-0.4,2.1,0.5,4.4,0.1,6.6c-0.2,1.1,1.5,1.5,1.7,0.5    c0.4-2.1,1.3-5,0.3-7.1c4.5-0.1,9.2-0.5,13.8-1.3C206.7,368.4,207.6,371.7,204.9,375.1z" fill="#282727"/></g></g><g id="top_copy_2"/></svg>